<mxfile host="Electron" modified="2024-10-23T08:15:40.195Z" agent="Mozilla/5.0 (Windows NT 10.0; Win64; x64) AppleWebKit/537.36 (KHTML, like Gecko) draw.io/24.1.0 Chrome/120.0.6099.109 Electron/28.1.0 Safari/537.36" etag="A4RAUPX4h51Z6lw5rl3d" version="24.1.0" type="device">
  <diagram name="Страница — 1" id="ZolQ2JIqH4mo4dx3h2JZ">
    <mxGraphModel dx="1050" dy="669" grid="1" gridSize="10" guides="1" tooltips="1" connect="1" arrows="1" fold="1" page="1" pageScale="1" pageWidth="827" pageHeight="1169" math="0" shadow="0">
      <root>
        <mxCell id="0" />
        <mxCell id="1" parent="0" />
        <mxCell id="-OfQUDWeO40YOju_OFQy-3" style="edgeStyle=orthogonalEdgeStyle;rounded=0;orthogonalLoop=1;jettySize=auto;html=1;entryX=0.5;entryY=0;entryDx=0;entryDy=0;" edge="1" parent="1" source="-OfQUDWeO40YOju_OFQy-1" target="-OfQUDWeO40YOju_OFQy-2">
          <mxGeometry relative="1" as="geometry" />
        </mxCell>
        <mxCell id="-OfQUDWeO40YOju_OFQy-1" value="&lt;font style=&quot;font-size: 16px;&quot;&gt;1&lt;/font&gt;" style="whiteSpace=wrap;html=1;aspect=fixed;" vertex="1" parent="1">
          <mxGeometry x="340" y="80" width="50" height="50" as="geometry" />
        </mxCell>
        <mxCell id="-OfQUDWeO40YOju_OFQy-6" style="edgeStyle=orthogonalEdgeStyle;rounded=0;orthogonalLoop=1;jettySize=auto;html=1;entryX=0.5;entryY=0;entryDx=0;entryDy=0;" edge="1" parent="1" source="-OfQUDWeO40YOju_OFQy-2" target="-OfQUDWeO40YOju_OFQy-5">
          <mxGeometry relative="1" as="geometry" />
        </mxCell>
        <mxCell id="-OfQUDWeO40YOju_OFQy-25" style="edgeStyle=orthogonalEdgeStyle;rounded=0;orthogonalLoop=1;jettySize=auto;html=1;entryX=0.5;entryY=0;entryDx=0;entryDy=0;" edge="1" parent="1" source="-OfQUDWeO40YOju_OFQy-2" target="-OfQUDWeO40YOju_OFQy-20">
          <mxGeometry relative="1" as="geometry" />
        </mxCell>
        <mxCell id="-OfQUDWeO40YOju_OFQy-2" value="&lt;font style=&quot;font-size: 16px;&quot;&gt;2&lt;/font&gt;" style="whiteSpace=wrap;html=1;aspect=fixed;" vertex="1" parent="1">
          <mxGeometry x="340" y="170" width="50" height="50" as="geometry" />
        </mxCell>
        <mxCell id="-OfQUDWeO40YOju_OFQy-4" value="while (line = reader.ReadLine()) != null" style="text;html=1;align=center;verticalAlign=middle;whiteSpace=wrap;rounded=0;fontSize=16;" vertex="1" parent="1">
          <mxGeometry x="390" y="160" width="280" height="30" as="geometry" />
        </mxCell>
        <mxCell id="-OfQUDWeO40YOju_OFQy-10" style="rounded=0;orthogonalLoop=1;jettySize=auto;html=1;exitX=0;exitY=1;exitDx=0;exitDy=0;entryX=1;entryY=0;entryDx=0;entryDy=0;" edge="1" parent="1" source="-OfQUDWeO40YOju_OFQy-5" target="-OfQUDWeO40YOju_OFQy-8">
          <mxGeometry relative="1" as="geometry" />
        </mxCell>
        <mxCell id="-OfQUDWeO40YOju_OFQy-11" style="rounded=0;orthogonalLoop=1;jettySize=auto;html=1;exitX=1;exitY=1;exitDx=0;exitDy=0;entryX=0;entryY=0;entryDx=0;entryDy=0;" edge="1" parent="1" source="-OfQUDWeO40YOju_OFQy-5" target="-OfQUDWeO40YOju_OFQy-9">
          <mxGeometry relative="1" as="geometry" />
        </mxCell>
        <mxCell id="-OfQUDWeO40YOju_OFQy-5" value="&lt;font style=&quot;font-size: 16px;&quot;&gt;3&lt;/font&gt;" style="whiteSpace=wrap;html=1;aspect=fixed;" vertex="1" parent="1">
          <mxGeometry x="340" y="270" width="50" height="50" as="geometry" />
        </mxCell>
        <mxCell id="-OfQUDWeO40YOju_OFQy-7" value="&lt;font style=&quot;font-size: 16px;&quot;&gt;if(punctuationMarksCount &amp;gt; punctuationMarksMaxAmount)&lt;/font&gt;" style="text;html=1;align=center;verticalAlign=middle;whiteSpace=wrap;rounded=0;" vertex="1" parent="1">
          <mxGeometry x="400" y="260" width="200" height="30" as="geometry" />
        </mxCell>
        <mxCell id="-OfQUDWeO40YOju_OFQy-16" style="rounded=0;orthogonalLoop=1;jettySize=auto;html=1;exitX=1;exitY=1;exitDx=0;exitDy=0;entryX=0;entryY=0;entryDx=0;entryDy=0;" edge="1" parent="1" source="-OfQUDWeO40YOju_OFQy-8" target="-OfQUDWeO40YOju_OFQy-13">
          <mxGeometry relative="1" as="geometry" />
        </mxCell>
        <mxCell id="-OfQUDWeO40YOju_OFQy-8" value="&lt;font style=&quot;font-size: 16px;&quot;&gt;4&lt;/font&gt;" style="whiteSpace=wrap;html=1;aspect=fixed;" vertex="1" parent="1">
          <mxGeometry x="280" y="350" width="50" height="50" as="geometry" />
        </mxCell>
        <mxCell id="-OfQUDWeO40YOju_OFQy-15" style="rounded=0;orthogonalLoop=1;jettySize=auto;html=1;exitX=1;exitY=1;exitDx=0;exitDy=0;entryX=0;entryY=0;entryDx=0;entryDy=0;" edge="1" parent="1" source="-OfQUDWeO40YOju_OFQy-9" target="-OfQUDWeO40YOju_OFQy-14">
          <mxGeometry relative="1" as="geometry" />
        </mxCell>
        <mxCell id="-OfQUDWeO40YOju_OFQy-17" style="rounded=0;orthogonalLoop=1;jettySize=auto;html=1;exitX=0;exitY=1;exitDx=0;exitDy=0;entryX=1;entryY=0;entryDx=0;entryDy=0;" edge="1" parent="1" source="-OfQUDWeO40YOju_OFQy-9" target="-OfQUDWeO40YOju_OFQy-13">
          <mxGeometry relative="1" as="geometry" />
        </mxCell>
        <mxCell id="-OfQUDWeO40YOju_OFQy-9" value="&lt;font style=&quot;font-size: 16px;&quot;&gt;5&lt;/font&gt;" style="whiteSpace=wrap;html=1;aspect=fixed;" vertex="1" parent="1">
          <mxGeometry x="400" y="350" width="50" height="50" as="geometry" />
        </mxCell>
        <mxCell id="-OfQUDWeO40YOju_OFQy-12" value="&lt;font style=&quot;font-size: 16px;&quot;&gt;if(punctuationMarksCount == punctuationMarksMaxAmount)&lt;/font&gt;" style="text;html=1;align=center;verticalAlign=middle;whiteSpace=wrap;rounded=0;" vertex="1" parent="1">
          <mxGeometry x="460" y="350" width="200" height="30" as="geometry" />
        </mxCell>
        <mxCell id="-OfQUDWeO40YOju_OFQy-19" style="edgeStyle=orthogonalEdgeStyle;rounded=0;orthogonalLoop=1;jettySize=auto;html=1;entryX=0;entryY=0.5;entryDx=0;entryDy=0;" edge="1" parent="1" source="-OfQUDWeO40YOju_OFQy-13" target="-OfQUDWeO40YOju_OFQy-2">
          <mxGeometry relative="1" as="geometry">
            <mxPoint x="210" y="250" as="targetPoint" />
            <Array as="points">
              <mxPoint x="365" y="570" />
              <mxPoint x="210" y="570" />
              <mxPoint x="210" y="195" />
            </Array>
          </mxGeometry>
        </mxCell>
        <mxCell id="-OfQUDWeO40YOju_OFQy-13" value="&lt;font style=&quot;font-size: 16px;&quot;&gt;7&lt;/font&gt;" style="whiteSpace=wrap;html=1;aspect=fixed;" vertex="1" parent="1">
          <mxGeometry x="340" y="490" width="50" height="50" as="geometry" />
        </mxCell>
        <mxCell id="-OfQUDWeO40YOju_OFQy-18" style="rounded=0;orthogonalLoop=1;jettySize=auto;html=1;exitX=0;exitY=1;exitDx=0;exitDy=0;entryX=1;entryY=0;entryDx=0;entryDy=0;" edge="1" parent="1" source="-OfQUDWeO40YOju_OFQy-14" target="-OfQUDWeO40YOju_OFQy-13">
          <mxGeometry relative="1" as="geometry" />
        </mxCell>
        <mxCell id="-OfQUDWeO40YOju_OFQy-14" value="&lt;font style=&quot;font-size: 16px;&quot;&gt;6&lt;/font&gt;" style="whiteSpace=wrap;html=1;aspect=fixed;" vertex="1" parent="1">
          <mxGeometry x="470" y="420" width="50" height="50" as="geometry" />
        </mxCell>
        <mxCell id="-OfQUDWeO40YOju_OFQy-24" style="edgeStyle=orthogonalEdgeStyle;rounded=0;orthogonalLoop=1;jettySize=auto;html=1;" edge="1" parent="1" source="-OfQUDWeO40YOju_OFQy-20" target="-OfQUDWeO40YOju_OFQy-23">
          <mxGeometry relative="1" as="geometry" />
        </mxCell>
        <mxCell id="-OfQUDWeO40YOju_OFQy-28" style="edgeStyle=orthogonalEdgeStyle;rounded=0;orthogonalLoop=1;jettySize=auto;html=1;entryX=0.5;entryY=0;entryDx=0;entryDy=0;" edge="1" parent="1" source="-OfQUDWeO40YOju_OFQy-20" target="-OfQUDWeO40YOju_OFQy-27">
          <mxGeometry relative="1" as="geometry">
            <Array as="points">
              <mxPoint x="800" y="255" />
              <mxPoint x="800" y="400" />
              <mxPoint x="715" y="400" />
            </Array>
          </mxGeometry>
        </mxCell>
        <mxCell id="-OfQUDWeO40YOju_OFQy-20" value="&lt;font style=&quot;font-size: 16px;&quot;&gt;8&lt;/font&gt;" style="whiteSpace=wrap;html=1;aspect=fixed;" vertex="1" parent="1">
          <mxGeometry x="690" y="230" width="50" height="50" as="geometry" />
        </mxCell>
        <mxCell id="-OfQUDWeO40YOju_OFQy-22" value="foreach(maxstring)" style="text;html=1;align=center;verticalAlign=middle;whiteSpace=wrap;rounded=0;fontSize=16;" vertex="1" parent="1">
          <mxGeometry x="740" y="220" width="150" height="30" as="geometry" />
        </mxCell>
        <mxCell id="-OfQUDWeO40YOju_OFQy-26" style="edgeStyle=orthogonalEdgeStyle;rounded=0;orthogonalLoop=1;jettySize=auto;html=1;exitX=0;exitY=0.5;exitDx=0;exitDy=0;entryX=0;entryY=0.5;entryDx=0;entryDy=0;" edge="1" parent="1" source="-OfQUDWeO40YOju_OFQy-23" target="-OfQUDWeO40YOju_OFQy-20">
          <mxGeometry relative="1" as="geometry" />
        </mxCell>
        <mxCell id="-OfQUDWeO40YOju_OFQy-23" value="&lt;font style=&quot;font-size: 16px;&quot;&gt;9&lt;/font&gt;" style="whiteSpace=wrap;html=1;aspect=fixed;" vertex="1" parent="1">
          <mxGeometry x="690" y="330" width="50" height="50" as="geometry" />
        </mxCell>
        <mxCell id="-OfQUDWeO40YOju_OFQy-27" value="&lt;font style=&quot;font-size: 16px;&quot;&gt;10&lt;/font&gt;" style="whiteSpace=wrap;html=1;aspect=fixed;" vertex="1" parent="1">
          <mxGeometry x="690" y="420" width="50" height="50" as="geometry" />
        </mxCell>
      </root>
    </mxGraphModel>
  </diagram>
</mxfile>
